<svg width="27" height="28" viewBox="0 0 27 28" fill="none" xmlns="http://www.w3.org/2000/svg">
<path fill-rule="evenodd" clip-rule="evenodd" d="M13.5784 0.76416C6.16896 0.76416 0.167666 6.7911 0.167666 14.2322C0.166144 17.0595 1.05118 19.8155 2.69721 22.1092C4.34325 24.4029 6.66669 26.1178 9.3379 27.0106C10.0084 27.1278 10.2592 26.7238 10.2592 26.3695C10.2592 26.0504 10.2418 24.9904 10.2418 23.8618C6.87302 24.4854 6.00132 23.0376 5.73311 22.2793C5.58157 21.8914 4.92846 20.6968 4.35851 20.3763C3.88914 20.1244 3.2186 19.5009 4.34108 19.4847C5.39784 19.4672 6.15152 20.4611 6.40364 20.8652C7.61061 22.9015 9.53907 22.3291 10.3088 21.9763C10.4269 21.1009 10.7782 20.5123 11.1644 20.1756C8.18056 19.8389 5.06257 18.6766 5.06257 13.5251C5.06257 12.0598 5.58157 10.849 6.43717 9.9049C6.30306 9.5682 5.83369 8.18773 6.57128 6.33588C6.57128 6.33588 7.69375 5.98302 10.2592 7.7177C11.3509 7.4134 12.4789 7.26025 13.6119 7.26248C14.7518 7.26248 15.8917 7.41332 16.9646 7.71635C19.5287 5.96551 20.6525 6.33722 20.6525 6.33722C21.3901 8.18908 20.9207 9.56955 20.7866 9.90625C21.6409 10.849 22.1612 12.0436 22.1612 13.5251C22.1612 18.6941 19.0271 19.8389 16.0433 20.1756C16.5287 20.5958 16.9485 21.4039 16.9485 22.6672C16.9485 24.4679 16.931 25.9157 16.931 26.3709C16.931 26.7238 17.1832 27.144 17.8537 27.0093C20.5158 26.1066 22.829 24.3884 24.4677 22.0964C26.1065 19.8043 26.9883 17.0539 26.9891 14.2322C26.9891 6.7911 20.9878 0.76416 13.5784 0.76416Z" fill="#000000"/>
</svg>
