<svg width="28" height="28" viewBox="0 0 28 28" fill="none" xmlns="http://www.w3.org/2000/svg">
<path fill-rule="evenodd" clip-rule="evenodd" d="M14.3752 27.7002C6.96851 27.7002 0.964539 21.6706 0.964539 14.2322C0.964539 6.79379 6.96851 0.76416 14.3752 0.76416C21.782 0.76416 27.7859 6.79379 27.7859 14.2322C27.7859 21.6706 21.782 27.7002 14.3752 27.7002ZM14.4342 20.6793C17.7132 20.6793 20.1566 18.5904 20.5442 15.5871V13.0403H14.4839V15.5857H17.9733C17.7065 16.3449 17.212 17.0025 16.5578 17.4679C15.9036 17.9334 15.122 18.1839 14.3203 18.185C12.719 18.185 10.7302 16.7036 10.7302 14.3561C10.7302 12.1729 12.2872 10.4827 14.3203 10.4827C15.3113 10.4827 16.2152 10.8584 16.8978 11.4739L18.774 9.62073C18.0158 8.91008 17.0963 8.39632 16.0952 8.12419C15.0942 7.85205 14.0422 7.82978 13.0306 8.05933C12.0191 8.28887 11.0788 8.76326 10.2915 9.4412C9.50427 10.1191 8.89398 10.9801 8.51378 11.949C8.13358 12.918 7.995 13.9656 8.11011 15.0006C8.22522 16.0356 8.59052 17.0267 9.17421 17.8876C9.7579 18.7484 10.5423 19.4529 11.4591 19.9397C12.3758 20.4265 13.3972 20.6795 14.4342 20.6793Z" fill="#bbbbbb"/>
</svg>